PathFileType	4	(X/Y/Z)	C:\Users\italobelli\Desktop\GitHub\PTbot_officialCBL\Personal_Results\SHRUG03_noisy2.trc
DataRate	CameraRate	NumFrames	NumMarkers	Units	OrigDataRate	OrigDataStartFrame	OrigNumFrames
110.888889	110.888889	21	9	m	110.888889	1	500
Frame#	Time		gu		centelbow		EpL		centpxt8		centijc7		ts		aa		ai		ij
			X1	Y1	Z1	X2	Y2	Z2	X3	Y3	Z3	X4	Y4	Z4	X5	Y5	Z5	X6	Y6	Z6	X7	Y7	Z7	X8	Y8	Z8	X9	Y9	Z9

1	0	-0.078876	-0.01263	0.16621	-0.11676	-0.25871	0.20265	-0.095622	-0.25429	0.22659	-0.046816	-0.15316	-0.008669	-0.046816	0.031938	-0.008669	-0.1383	0.031655	0.057511	-0.10482	0.025361	0.17181	-0.1612	-0.079362	0.063544	0	0	0
2	0.009018	-0.07893	-0.012821	0.16626	-0.11695	-0.25904	0.20258	-0.095815	-0.25463	0.22653	-0.046816	-0.15316	-0.008669	-0.046816	0.031938	-0.008669	-0.13835	0.031495	0.057561	-0.10489	0.025127	0.17186	-0.16122	-0.079539	0.06351	0	0	0
3	0.018036	-0.078983	-0.01301	0.16632	-0.11714	-0.25938	0.20252	-0.096008	-0.25496	0.22646	-0.046816	-0.15316	-0.008669	-0.046816	0.031938	-0.008669	-0.1384	0.031339	0.057611	-0.10496	0.024897	0.17192	-0.16124	-0.079713	0.063478	0	0	0
4	0.027054	-0.079033	-0.013194	0.16637	-0.11732	-0.25971	0.20245	-0.096201	-0.25529	0.22641	-0.046816	-0.15316	-0.008669	-0.046816	0.031938	-0.008669	-0.13845	0.031187	0.05766	-0.10502	0.024671	0.17197	-0.16126	-0.079882	0.063448	0	0	0
5	0.036072	-0.079083	-0.013375	0.16642	-0.11751	-0.26004	0.20239	-0.096393	-0.25562	0.22635	-0.046816	-0.15316	-0.008669	-0.046816	0.031938	-0.008669	-0.1385	0.031039	0.057709	-0.10508	0.02445	0.17202	-0.16128	-0.080047	0.063421	0	0	0
6	0.04509	-0.07913	-0.013552	0.16647	-0.1177	-0.26036	0.20233	-0.096585	-0.25594	0.22629	-0.046816	-0.15316	-0.008669	-0.046816	0.031938	-0.008669	-0.13854	0.030895	0.057757	-0.10514	0.024235	0.17207	-0.1613	-0.080207	0.063396	0	0	0
7	0.054108	-0.079176	-0.013724	0.16652	-0.11788	-0.26069	0.20227	-0.096776	-0.25626	0.22624	-0.046816	-0.15316	-0.008669	-0.046816	0.031938	-0.008669	-0.13859	0.030755	0.057805	-0.1052	0.024025	0.17212	-0.16131	-0.080363	0.063373	0	0	0
8	0.063126	-0.07922	-0.013893	0.16657	-0.11807	-0.261	0.20222	-0.096967	-0.25658	0.22618	-0.046816	-0.15316	-0.008669	-0.046816	0.031938	-0.008669	-0.13863	0.030619	0.057853	-0.10525	0.02382	0.17217	-0.16133	-0.080515	0.063352	0	0	0
9	0.072144	-0.079262	-0.014056	0.16662	-0.11826	-0.26132	0.20216	-0.097157	-0.25689	0.22613	-0.046816	-0.15316	-0.008669	-0.046816	0.031938	-0.008669	-0.13866	0.030488	0.0579	-0.1053	0.023621	0.17222	-0.16134	-0.080661	0.063334	0	0	0
10	0.081162	-0.079302	-0.014215	0.16667	-0.11844	-0.26163	0.20211	-0.097347	-0.2572	0.22608	-0.046816	-0.15316	-0.008669	-0.046816	0.031938	-0.008669	-0.1387	0.030361	0.057946	-0.10535	0.023429	0.17226	-0.16135	-0.080803	0.063318	0	0	0
11	0.09018	-0.079341	-0.014369	0.16672	-0.11863	-0.26194	0.20206	-0.097537	-0.2575	0.22603	-0.046816	-0.15316	-0.008669	-0.046816	0.031938	-0.008669	-0.13873	0.030239	0.057991	-0.1054	0.023242	0.17231	-0.16136	-0.08094	0.063303	0	0	0
12	0.099198	-0.079377	-0.014517	0.16676	-0.11882	-0.26224	0.20201	-0.097726	-0.2578	0.22599	-0.046816	-0.15316	-0.008669	-0.046816	0.031938	-0.008669	-0.13876	0.030121	0.058036	-0.10544	0.023062	0.17235	-0.16137	-0.081071	0.063291	0	0	0
13	0.10822	-0.079412	-0.01466	0.16681	-0.119	-0.26253	0.20196	-0.097915	-0.25809	0.22594	-0.046816	-0.15316	-0.008669	-0.046816	0.031938	-0.008669	-0.13879	0.030009	0.05808	-0.10548	0.022889	0.17239	-0.16137	-0.081197	0.063281	0	0	0
14	0.11723	-0.079444	-0.014797	0.16686	-0.11919	-0.26282	0.20191	-0.098104	-0.25837	0.2259	-0.046816	-0.15316	-0.008669	-0.046816	0.031938	-0.008669	-0.13882	0.029901	0.058122	-0.10552	0.022723	0.17243	-0.16138	-0.081318	0.063273	0	0	0
15	0.12625	-0.079474	-0.014928	0.1669	-0.11937	-0.26311	0.20187	-0.098292	-0.25865	0.22586	-0.046816	-0.15316	-0.008669	-0.046816	0.031938	-0.008669	-0.13884	0.029799	0.058164	-0.10556	0.022564	0.17247	-0.16138	-0.081432	0.063268	0	0	0
16	0.13527	-0.079503	-0.015053	0.16694	-0.11956	-0.26338	0.20183	-0.09848	-0.25892	0.22582	-0.046816	-0.15316	-0.008669	-0.046816	0.031938	-0.008669	-0.13886	0.029701	0.058205	-0.10559	0.022412	0.17251	-0.16138	-0.081542	0.063264	0	0	0
17	0.14429	-0.079529	-0.015171	0.16698	-0.11975	-0.26365	0.20179	-0.098668	-0.25918	0.22578	-0.046816	-0.15316	-0.008669	-0.046816	0.031938	-0.008669	-0.13888	0.029609	0.058244	-0.10562	0.022269	0.17254	-0.16138	-0.081645	0.063262	0	0	0
18	0.15331	-0.079553	-0.015283	0.16702	-0.11993	-0.26392	0.20175	-0.098855	-0.25944	0.22574	-0.046816	-0.15316	-0.008669	-0.046816	0.031938	-0.008669	-0.13889	0.029523	0.058283	-0.10564	0.022133	0.17258	-0.16138	-0.081742	0.063262	0	0	0
19	0.16232	-0.079575	-0.015389	0.16706	-0.12012	-0.26417	0.20171	-0.099042	-0.25969	0.2257	-0.046816	-0.15316	-0.008669	-0.046816	0.031938	-0.008669	-0.13891	0.029442	0.05832	-0.10566	0.022005	0.17261	-0.16138	-0.081834	0.063264	0	0	0
20	0.17134	-0.079594	-0.015487	0.1671	-0.1203	-0.26442	0.20167	-0.099229	-0.25993	0.22567	-0.046816	-0.15316	-0.008669	-0.046816	0.031938	-0.008669	-0.13892	0.029366	0.058356	-0.10568	0.021886	0.17264	-0.16137	-0.081919	0.063268	0	0	0
21	0.18036	-0.079611	-0.015577	0.16714	-0.12049	-0.26465	0.20164	-0.099415	-0.26016	0.22563	-0.046816	-0.15316	-0.008669	-0.046816	0.031938	-0.008669	-0.13892	0.029296	0.05839	-0.1057	0.021776	0.17267	-0.16137	-0.081997	0.063274	0	0	0
